<svg width="20" height="23" viewBox="0 0 20 23" fill="none" xmlns="http://www.w3.org/2000/svg">
<path d="M9.59459 0C4.30419 0 0 3.96948 0 8.84856C0 13.4604 7.96373 21.4001 8.87168 22.2913L9.59459 23L10.3175 22.2913C11.2257 21.4009 19.1893 13.4604 19.1893 8.84856C19.1897 3.96948 14.8855 0 9.59459 0ZM9.59459 12.5103C7.40553 12.5103 5.6244 10.8677 5.6244 8.84887C5.6244 6.82998 7.40553 5.18741 9.59459 5.18741C11.7841 5.18741 13.5648 6.83004 13.5648 8.84887C13.5648 10.8678 11.7841 12.5103 9.59459 12.5103Z" fill="url(#paint0_linear_850_7042)"/>
<defs>
<linearGradient id="paint0_linear_850_7042" x1="0" y1="0" x2="19.2232" y2="0.0284336" gradientUnits="userSpaceOnUse">
<stop stop-color="#8940E9"/>
<stop offset="1" stop-color="#F75AA9"/>
</linearGradient>
</defs>
</svg>
